<?xml version="1.0" encoding="utf-8"?>
<!-- Generator: Adobe Illustrator 28.1.0, SVG Export Plug-In . SVG Version: 6.00 Build 0)  -->
<svg version="1.1" id="Layer_1" xmlns="http://www.w3.org/2000/svg" xmlns:xlink="http://www.w3.org/1999/xlink" x="0px" y="0px"
	 viewBox="0 0 1643 1055" style="enable-background:new 0 0 1643 1055;" xml:space="preserve">
<style type="text/css">
	.st0{fill:#FFFFFF;}
</style>
<g>
	<g>
		<path class="st0" d="M330.64,550.24l3.04-137.95c0.16-7.13,6.07-12.79,13.2-12.63l76.07,1.68c22.74,0.5,38.97,7.38,49.7,19.92
			c8.11,9.46,12.74,21.36,12.44,34.65c-0.32,14.3-6.46,26.96-16.45,36.28c-10.74,10.05-25.78,15.74-48.03,15.25l-33.29-0.73
			c-7.13-0.16-13.04,5.5-13.2,12.63l-0.7,31.85c-0.16,7.13-6.07,12.79-13.2,12.63l-16.95-0.37
			C336.14,563.28,330.49,557.37,330.64,550.24z M375.68,448.84l-0.2,9.03c-0.16,7.13,5.5,13.05,12.63,13.2l35.73,0.79
			c5.38,0.12,9.81-1.29,12.81-4.23c3.25-3.19,5.55-7.91,5.66-12.68c0.1-4.76-1.75-9.57-4.85-12.9c-3.35-3.59-7.96-4.94-12.85-5.05
			l-35.73-0.79C381.75,436.05,375.84,441.71,375.68,448.84z"/>
	</g>
	<g>
		<path class="st0" d="M556.89,417.2l-2.23,101.08c-0.16,7.13,5.5,13.04,12.63,13.2l63.89,1.41c7.13,0.16,12.79,6.07,12.63,13.2
			l-0.24,11.04c-0.16,7.13-6.07,12.79-13.2,12.63l-106.67-2.35c-7.13-0.16-12.79-6.07-12.63-13.2l3.04-137.95
			c0.16-7.13,6.07-12.79,13.2-12.63l16.95,0.37C551.39,404.16,557.04,410.07,556.89,417.2z"/>
	</g>
	<g>
		<path class="st0" d="M660,552.17l65.43-136.58c2.19-4.58,6.86-7.45,11.94-7.34l18.78,0.41c5.07,0.11,9.61,3.18,11.6,7.85
			l59.35,139.33c3.68,8.64-2.79,18.19-12.17,17.98l-18.01-0.4c-5.24-0.12-9.9-3.39-11.78-8.29l-3.5-9.12
			c-1.88-4.9-6.53-8.17-11.78-8.29l-53.97-1.19c-5.28-0.12-10.11,3-12.17,7.86l-3.73,8.76c-2.07,4.86-6.89,7.98-12.17,7.86
			l-16.46-0.36C661.98,570.46,655.94,560.63,660,552.17z M740.77,512.97l5.64,0.12c9.17,0.2,15.62-8.94,12.36-17.51l-13.29-34.96
			l-1.47-0.03l-14.82,34.34C725.56,503.35,731.61,512.77,740.77,512.97z"/>
	</g>
	<g>
		<path class="st0" d="M1010.87,427.2l-3.04,137.95c-0.16,7.13-6.07,12.79-13.2,12.63l-17.01-0.38c-3.95-0.09-7.64-1.98-10.02-5.13
			l-64.68-85.6l-0.24-0.01l-1.68,76.12c-0.16,7.13-6.07,12.79-13.2,12.63l-17.19-0.38c-7.13-0.16-12.79-6.07-12.63-13.2L861,423.9
			c0.16-7.13,6.07-12.79,13.2-12.63l16.77,0.37c3.95,0.09,7.64,1.97,10.02,5.13l64.92,85.86l0.24,0.01l1.68-76.38
			c0.16-7.13,6.07-12.79,13.2-12.63l17.19,0.38C1005.37,414.16,1011.02,420.07,1010.87,427.2z"/>
	</g>
	<g>
		<path class="st0" d="M1140.56,515.26l-30.39-0.67c-7.13-0.16-13.04,5.5-13.2,12.63l-0.07,3.01c-0.16,7.13,5.5,13.04,12.63,13.2
			l73.18,1.61c7.13,0.16,12.79,6.07,12.63,13.2l-0.24,11.04c-0.16,7.13-6.07,12.79-13.2,12.63l-115.96-2.55
			c-7.13-0.16-12.79-6.07-12.63-13.2l3.04-137.95c0.16-7.13,6.07-12.79,13.2-12.63l110.58,2.44c7.13,0.16,12.79,6.07,12.63,13.2
			l-0.24,11.04c-0.16,7.13-6.07,12.79-13.2,12.63l-67.8-1.49c-7.13-0.16-13.04,5.5-13.2,12.63v0c-0.16,7.13,5.5,13.04,12.63,13.2
			l30.39,0.67c7.13,0.16,12.79,6.07,12.63,13.2l-0.21,9.53C1153.6,509.76,1147.69,515.41,1140.56,515.26z"/>
	</g>
	<g>
		<path class="st0" d="M1225.76,419.01l122.32,2.7c7.13,0.16,12.79,6.07,12.63,13.2l-0.24,11.04c-0.16,7.13-6.07,12.79-13.2,12.63
			l-26.73-0.59c-7.13-0.16-13.04,5.5-13.2,12.63l-2.23,101.08c-0.16,7.13-6.07,12.79-13.2,12.63l-16.95-0.37
			c-7.13-0.16-12.79-6.07-12.63-13.2l2.23-101.08c0.16-7.13-5.5-13.04-12.63-13.2l-26.97-0.59c-7.13-0.16-12.79-6.07-12.63-13.2
			l0.24-11.04C1212.71,424.51,1218.62,418.86,1225.76,419.01z"/>
	</g>
</g>
<g>
	<g>
		<path class="st0" d="M687.54,657.8l-5.95,270.12c-0.61,27.52-23.41,49.34-50.93,48.73l-10.24-0.23
			c-15.02-0.33-29.09-7.42-38.29-19.29L438.02,771.27l-0.57-0.01l-3.33,151.2c-0.61,27.52-23.41,49.34-50.93,48.73h0
			c-27.52-0.61-49.34-23.41-48.73-50.93l5.95-270.12c0.61-27.52,23.41-49.34,50.93-48.73l9.68,0.21
			c15.01,0.33,29.08,7.41,38.28,19.28l144.66,186.45l0.57,0.01l3.34-151.76c0.61-27.52,23.41-49.34,50.93-48.73h0
			C666.32,607.47,688.14,630.27,687.54,657.8z"/>
	</g>
	<g>
		<path class="st0" d="M799.34,934.4l6.13-278.46c0.56-25.22,21.45-45.21,46.67-44.65l7.78,0.17c25.22,0.56,45.21,21.45,44.65,46.67
			l-6.13,278.46c-0.56,25.22-21.45,45.21-46.67,44.65l-7.78-0.17C818.78,980.52,798.79,959.62,799.34,934.4z"/>
	</g>
	<g>
		<path class="st0" d="M1307.21,696.33l-62.7,72.74c-14.05,16.3-14.82,40.19-1.84,57.36l68.93,91.19
			c23.03,30.46,0.73,74.04-37.44,73.2l-5.89-0.13c-14.26-0.31-27.56-7.28-35.95-18.82L1191,914.98
			c-17.48-24.07-52.95-25.27-72.01-2.43l-47.27,56.62c-8.9,10.66-22.18,16.7-36.07,16.39l-0.5-0.01
			c-38.63-0.85-58.82-46.3-33.54-75.53l73.49-85c14.06-16.26,14.88-40.12,1.97-57.3l-59.03-78.59
			c-22.89-30.48-0.58-73.93,37.52-73.09l5.67,0.13c14.28,0.31,27.59,7.29,35.97,18.85l31.82,43.89c17.52,24.17,53.15,25.3,72.17,2.3
			l36.23-43.81c8.9-10.76,22.24-16.86,36.2-16.55h0C1312.22,621.7,1332.42,667.09,1307.21,696.33z"/>
	</g>
</g>
<g>
	<path class="st0" d="M817.98,126.18c-96.1,0-188.3,16.71-273.86,47.37c-33.88-47.35-89.32-78.21-151.99-78.21
		c-103.16,0-186.79,83.63-186.79,186.79c0,36.7,5.79,70.26,22.14,98.87C146.6,466.74,84.19,570.1,46.6,684.71
		c94.65-224.27,283.26-398.77,516.2-473.58c0.72,0.01,1.44,0.01,2.16,0.02c-0.09-0.21-0.18-0.41-0.26-0.62
		c79.9-25.45,165-39.19,253.28-39.19c346.66,0,644.11,211.7,771.42,513.5C1483.09,360.46,1177.9,126.18,817.98,126.18z"/>
</g>
<g>
</g>
<g>
</g>
<g>
</g>
<g>
</g>
<g>
</g>
<g>
</g>
<g>
</g>
<g>
</g>
<g>
</g>
<g>
</g>
<g>
</g>
<g>
</g>
<g>
</g>
<g>
</g>
<g>
</g>
</svg>
