<svg width="93" height="92" viewBox="0 0 93 92" fill="none" xmlns="http://www.w3.org/2000/svg">
<g opacity="0.75">
<path d="M46.63 30.27H70.41C71.23 30.27 71.9 29.6 71.9 28.78V19.86C71.9 19.04 71.23 18.37 70.41 18.37H46.63C45.81 18.37 45.14 19.04 45.14 19.86V22.83H40.68C39.86 22.83 39.19 23.5 39.19 24.32V45.13H35.79C35.3 43.49 34.42 41.98 33.17 40.75C32.41 39.98 31.54 39.35 30.61 38.86C32.21 37.5 33.25 35.49 33.25 33.23C33.25 29.13 29.92 25.8 25.82 25.8C21.72 25.8 18.39 29.13 18.39 33.23C18.39 35.5 19.43 37.5 21.03 38.87C17.7 40.61 15.41 44.09 15.41 48.1V54.05C15.41 54.87 16.08 55.54 16.9 55.54H19.87C20.69 55.54 21.36 54.87 21.36 54.05C21.36 53.23 20.69 52.56 19.87 52.56H18.38V48.1C18.38 44.51 20.94 41.51 24.33 40.82V42.16C24.33 42.98 25 43.65 25.82 43.65C26.64 43.65 27.31 42.98 27.31 42.16V40.82C28.73 41.11 30.04 41.8 31.08 42.86C32.48 44.25 33.26 46.11 33.26 48.11V52.57H31.77C30.95 52.57 30.28 53.24 30.28 54.06C30.28 54.88 30.95 55.55 31.77 55.55H34.74C35.56 55.55 36.23 54.88 36.23 54.06V48.11H39.2V68.92C39.2 69.74 39.87 70.41 40.69 70.41H45.15V73.38C45.15 74.2 45.82 74.87 46.64 74.87H70.42C71.24 74.87 71.91 74.2 71.91 73.38V64.46C71.91 63.64 71.24 62.97 70.42 62.97H46.64C45.82 62.97 45.15 63.64 45.15 64.46V67.43H42.18V55.54H45.15V58.51C45.15 59.33 45.82 60 46.64 60H70.42C71.24 60 71.91 59.33 71.91 58.51V49.59C71.91 48.77 71.24 48.1 70.42 48.1H46.64C45.82 48.1 45.15 48.77 45.15 49.59V52.56H42.18V40.67H45.15V43.64C45.15 44.46 45.82 45.13 46.64 45.13H70.42C71.24 45.13 71.91 44.46 71.91 43.64V34.72C71.91 33.9 71.24 33.23 70.42 33.23H46.64C45.82 33.23 45.15 33.9 45.15 34.72V37.69H42.18V25.8H45.15V28.77C45.15 29.59 45.82 30.26 46.64 30.26L46.63 30.27ZM21.36 33.24C21.36 30.78 23.36 28.78 25.82 28.78C28.28 28.78 30.28 30.78 30.28 33.24C30.28 35.7 28.28 37.7 25.82 37.7C23.36 37.7 21.36 35.7 21.36 33.24ZM68.93 71.89H57.04V65.94H68.93V71.89ZM48.12 65.94H54.07V71.89H48.12V65.94ZM68.93 57.02H62.98V51.07H68.93V57.02ZM48.12 51.08H60.01V57.03H48.12V51.08ZM68.93 42.16H57.04V36.21H68.93V42.16ZM48.12 36.21H54.07V42.16H48.12V36.21ZM68.93 27.3H57.04V21.35H68.93V27.3ZM48.12 21.35H54.07V27.3H48.12V21.35Z" fill="#FFD02B"/>
<path d="M25.82 55.5401C26.6429 55.5401 27.31 54.873 27.31 54.0501C27.31 53.2272 26.6429 52.5601 25.82 52.5601C24.9971 52.5601 24.33 53.2272 24.33 54.0501C24.33 54.873 24.9971 55.5401 25.82 55.5401Z" fill="#FFD02B"/>
</g>
<path d="M74.17 85.4401H5.91V18.1501L17.81 6.18005H85.18V73.4701L74.17 85.4401Z" stroke="#711AFF" stroke-width="2" stroke-linejoin="round"/>
</svg>
