<svg width="24" height="24" viewBox="0 0 24 24" fill="none" xmlns="http://www.w3.org/2000/svg">
<g clip-path="url(#clip0_77_35)">
<path d="M12 10.8001C10.913 8.68606 7.954 4.74706 5.202 2.80506C2.566 0.944059 1.561 1.26606 0.902 1.56506C0.139 1.90806 0 3.08006 0 3.76806C0 4.45806 0.378 9.41806 0.624 10.2471C1.439 12.9831 4.337 13.9071 7.007 13.6111C7.143 13.5911 7.282 13.5721 7.422 13.5551C7.284 13.5771 7.146 13.5951 7.007 13.6111C3.095 14.1911 -0.38 15.6161 4.177 20.6891C9.19 25.8791 11.047 19.5761 12 16.3811C12.953 19.5761 14.05 25.6521 19.733 20.6891C24 16.3811 20.905 14.1911 16.993 13.6111C16.8542 13.5957 16.7159 13.577 16.578 13.5551C16.718 13.5721 16.857 13.5911 16.993 13.6111C19.663 13.9081 22.561 12.9831 23.376 10.2471C23.622 9.41906 24 4.45706 24 3.76906C24 3.07906 23.861 1.90806 23.098 1.56306C22.439 1.26506 21.434 0.943058 18.798 2.80306C16.046 4.74806 13.087 8.68706 12 10.8001Z" fill="white"/>
</g>
<defs>
<clipPath id="clip0_77_35">
<rect width="24" height="24" fill="white"/>
</clipPath>
</defs>
</svg>
