<svg width="570" height="220" viewBox="330 145 570 220" fill="none" xmlns="http://www.w3.org/2000/svg">
<rect x="336" y="306" width="50.9999" height="51" fill="white"/>
<rect x="387" y="255" width="102" height="51" fill="white"/>
<path d="M386.203 153H489V204L387 255H336V204L386.203 153Z" fill="white"/>
<path d="M550.833 204.009H610.487V220.056H558.747V248.851H607.488V264.898H558.747V305.991H540V214.764L550.833 204.009Z" fill="white"/>
<path d="M626.487 204.009H645.233V289.944H691.425V305.991H637.614L626.487 295.236V204.009Z" fill="white"/>
<path d="M745.073 308.391C735.275 308.391 726.377 306.091 718.378 301.492C710.48 296.893 704.231 290.544 699.631 282.445C695.032 274.347 692.733 265.198 692.733 255C692.733 245.102 694.982 236.103 699.481 228.005C703.981 219.806 710.18 213.357 718.078 208.658C726.077 203.959 735.075 201.609 745.073 201.609C754.872 201.609 763.77 203.909 771.769 208.508C779.767 213.107 786.066 219.456 790.665 227.555C795.265 235.653 797.564 244.802 797.564 255C797.564 264.898 795.314 273.947 790.815 282.145C786.316 290.244 780.067 296.643 772.069 301.342C764.07 306.041 755.072 308.391 745.073 308.391ZM745.073 291.294C751.472 291.294 757.221 289.744 762.32 286.644C767.419 283.545 771.369 279.246 774.168 273.747C777.068 268.248 778.517 261.999 778.517 255C778.517 248.001 777.068 241.752 774.168 236.253C771.369 230.754 767.419 226.455 762.32 223.356C757.221 220.256 751.472 218.706 745.073 218.706C738.675 218.706 732.926 220.256 727.826 223.356C722.727 226.455 718.728 230.754 715.829 236.253C713.029 241.752 711.629 248.001 711.629 255C711.629 261.999 713.029 268.248 715.829 273.747C718.728 279.246 722.727 283.545 727.826 286.644C732.926 289.744 738.675 291.294 745.073 291.294Z" fill="white"/>
<path fill-rule="evenodd" clip-rule="evenodd" d="M891.916 306L857.932 256.65L857.94 256.638L847.671 241.765L847.647 241.8L821.563 204H800.1L835.425 255.45L800.1 306H821.712L845.71 270.45L870.154 306H891.916ZM856.856 228.143L867.257 243.206L894.45 204H873.135L856.856 228.143Z" fill="white"/>
</svg>
