<svg viewBox="0 -150 1725 550" fill="none" xmlns="http://www.w3.org/2000/svg"  width="164" ><path d="M3.18335 368.441C1.27334 366.676 0 364.323 0 361.97V51.3877C0 49.0348 1.27334 46.6819 3.18335 44.9172C5.09336 43.1525 7.64008 41.9761 10.1868 41.9761H61.1204C64.3037 41.9761 66.8504 42.5643 68.1238 43.7407C70.0338 44.9172 71.3071 47.2701 72.5804 49.623L155.984 244.325C157.258 246.09 158.531 247.266 159.804 247.266C161.078 247.266 161.714 246.678 162.351 246.09C162.988 245.502 163.624 244.325 163.624 243.149V51.3877C163.624 49.0348 164.898 46.6819 166.808 44.9172C168.718 43.1525 171.264 41.9761 173.811 41.9761H215.195C217.741 41.9761 220.288 43.1525 222.198 44.9172C224.108 46.6819 225.381 49.0348 225.381 51.3877V361.97C225.381 364.323 224.108 366.676 222.198 368.441C220.288 370.205 217.741 371.382 215.195 371.382H164.261C161.078 371.382 158.531 370.793 157.258 369.617C155.348 368.441 154.074 366.088 152.801 363.735L69.3971 168.444C68.7604 166.68 67.4871 165.503 65.5771 165.503C64.9404 165.503 64.3037 166.091 63.0304 166.68C62.3937 167.268 61.7571 168.444 61.7571 169.621V361.97C61.7571 364.323 60.4837 366.676 58.5737 368.441C56.6637 370.205 54.117 371.382 51.5703 371.382H10.1868C7.64008 371.382 5.73003 370.205 3.18335 368.441Z" fill="#fff"></path><path d="M296.771 353.705C281.491 338.411 273.851 317.823 273.851 291.354V145.475C273.851 143.122 275.124 140.769 277.034 139.004C278.944 137.239 281.491 136.063 284.037 136.063H321.601C324.148 136.063 326.694 137.239 328.604 139.004C330.514 140.769 331.788 143.122 331.788 145.475V283.118C331.788 296.059 335.608 306.059 343.248 313.118C350.888 320.176 361.711 323.706 374.445 323.706C387.178 323.706 397.365 320.176 405.005 313.118C412.645 306.059 416.465 296.059 416.465 283.118V145.475C416.465 143.122 417.738 140.769 419.648 139.004C421.558 137.239 424.105 136.063 426.651 136.063H464.852C467.398 136.063 469.945 137.239 471.855 139.004C473.765 140.769 475.038 143.122 475.038 145.475V361.94C475.038 364.293 473.765 366.646 471.855 368.411C469.945 370.175 467.398 371.352 464.852 371.352H438.112C434.928 371.352 433.018 370.763 431.108 369.587C429.835 368.411 427.925 366.646 426.015 364.293C424.742 361.94 423.468 360.764 422.195 359.587C420.921 358.411 419.011 358.411 416.465 358.411C413.918 358.411 409.461 360.175 403.731 363.705C396.728 367.822 390.361 371.352 383.358 373.705C376.354 376.057 367.441 377.234 355.981 377.234C332.424 376.646 312.051 368.999 296.771 353.705Z" fill="#fff"></path><path d="M523.531 368.423C521.621 366.658 520.348 364.306 520.348 361.953V145.487C520.348 143.134 521.621 140.781 523.531 139.017C525.441 137.252 527.988 136.076 530.534 136.076H558.548C561.731 136.076 563.641 136.664 565.551 137.84C566.825 139.017 568.735 140.781 570.645 143.134C571.918 145.487 573.191 147.252 574.465 147.84C575.738 149.016 577.648 149.605 579.558 149.605C582.741 149.605 586.561 147.84 591.655 143.722C597.385 139.605 603.115 136.076 609.482 133.723C615.212 131.37 623.488 130.193 634.312 130.193C646.408 130.193 655.959 131.958 662.962 135.487C669.965 139.017 676.969 143.722 683.335 149.016C685.882 150.781 688.429 152.546 690.975 154.31C693.522 156.075 695.432 156.663 697.342 156.663C699.252 156.663 701.799 156.075 703.709 154.31C706.255 153.134 708.165 151.369 710.712 149.016C718.989 143.134 726.629 138.428 734.269 134.899C741.909 131.37 752.732 130.193 766.102 130.193C790.933 130.193 811.306 137.84 826.586 152.546C841.866 167.251 849.506 188.427 849.506 214.897V361.953C849.506 364.306 848.233 366.658 846.323 368.423C844.413 370.188 841.866 371.364 839.32 371.364H801.756C799.209 371.364 796.663 370.188 794.753 368.423C792.843 366.658 791.569 364.306 791.569 361.953V219.603C791.569 208.427 787.749 199.604 780.746 193.133C773.743 186.663 764.192 183.722 752.732 183.722C741.272 183.722 731.722 186.663 724.719 193.133C717.716 199.604 713.896 208.427 713.896 219.603V361.953C713.896 364.306 712.622 366.658 710.712 368.423C708.802 370.188 706.255 371.364 703.709 371.364H666.145C663.599 371.364 661.052 370.188 659.142 368.423C657.232 366.658 655.958 364.306 655.958 361.953V219.603C655.958 208.427 652.138 199.604 645.135 193.133C638.132 186.663 628.582 183.722 617.122 183.722C605.662 183.722 596.111 186.663 589.108 193.133C582.105 199.604 578.285 208.427 578.285 219.603V361.953C578.285 364.306 577.011 366.658 575.101 368.423C573.191 370.188 570.645 371.364 568.098 371.364H530.534C527.988 371.364 525.441 370.188 523.531 368.423Z" fill="#fff"></path><path d="M955.945 350.793C941.939 337.264 934.935 318.441 934.935 295.5V187.266C934.935 184.325 933.025 182.561 929.842 182.561H878.908C876.362 182.561 873.815 181.384 871.905 179.62C869.995 177.855 868.722 175.502 868.722 173.149V140.797C868.722 138.444 869.995 136.091 871.905 134.326C873.815 132.562 876.362 131.385 878.908 131.385H929.842C933.025 131.385 934.935 129.621 934.935 126.679V51.3867C934.935 49.0338 936.209 46.6809 938.119 44.9162C940.029 43.1515 942.575 41.9751 945.122 41.9751H982.686C985.232 41.9751 987.779 43.1515 989.689 44.9162C991.599 46.6809 992.872 49.0338 992.872 51.3867V126.679C992.872 129.621 994.782 131.385 997.966 131.385H1068C1070.55 131.385 1073.09 132.562 1075 134.326C1076.91 136.091 1078.19 138.444 1078.19 140.797V173.149C1078.19 175.502 1076.91 177.855 1075 179.62C1073.09 181.384 1070.55 182.561 1068 182.561H997.966C994.782 182.561 992.872 184.325 992.872 187.266V287.853C992.872 297.853 996.056 304.911 1001.79 310.205C1007.52 315.499 1015.79 317.852 1025.98 317.852H1068.64C1071.18 317.852 1073.73 319.029 1075.64 320.793C1077.55 322.558 1078.82 324.911 1078.82 327.264V361.969C1078.82 364.322 1077.55 366.675 1075.64 368.44C1073.73 370.204 1071.18 371.381 1068.64 371.381H1017.07C990.326 371.381 970.589 364.322 955.945 350.793Z" fill="#fff"></path><path d="M1111.73 368.446C1109.82 366.682 1109.18 364.329 1109.18 361.976V153.746C1109.18 151.393 1109.82 149.04 1111.73 147.275C1113.64 145.51 1116.19 144.334 1119.37 144.334H1156.93C1160.12 144.334 1162.66 144.922 1164.57 146.687C1166.48 148.452 1167.12 150.216 1167.12 153.157V361.976C1167.12 364.917 1166.48 366.682 1164.57 368.446C1162.66 370.211 1160.12 370.799 1156.93 370.799H1119.37C1116.19 371.388 1113.64 370.211 1111.73 368.446Z" fill="#fff"></path><path d="M1264.64 370.792C1249.99 365.498 1237.9 357.263 1227.71 346.675C1216.25 335.499 1207.33 321.382 1200.97 305.5C1194.6 289.029 1192.05 271.383 1192.05 251.383C1192.05 231.383 1195.24 213.737 1200.97 197.266C1207.33 180.796 1215.61 167.267 1227.71 156.091C1237.9 145.503 1249.99 137.856 1264.64 131.973C1279.28 126.091 1295.2 123.738 1313.02 123.738C1326.39 123.738 1336.58 124.915 1344.86 127.268C1353.13 129.621 1360.77 132.562 1369.69 136.679C1370.32 137.267 1372.23 137.856 1375.42 139.62C1378.6 141.385 1381.15 141.973 1384.33 141.973C1390.7 141.973 1393.24 138.444 1393.24 131.973V51.3867C1393.24 49.0338 1394.52 46.6809 1396.43 44.9162C1398.34 43.1515 1400.88 41.9751 1404.07 41.9751H1441.63C1444.18 41.9751 1446.72 43.1515 1448.63 44.9162C1450.54 46.6809 1451.82 49.0338 1451.82 51.3867V361.969C1451.82 364.322 1450.54 366.675 1448.63 368.44C1446.72 370.204 1444.18 371.381 1441.63 371.381H1414.89C1410.43 371.381 1405.98 369.028 1402.79 363.734C1400.88 361.381 1398.97 359.616 1397.06 357.852C1395.15 356.675 1392.61 356.087 1389.42 356.087C1385.6 356.087 1379.87 358.44 1372.87 362.557C1364.59 367.851 1355.68 371.381 1347.4 374.322C1339.13 377.263 1327.67 379.028 1313.02 379.028C1295.2 379.028 1279.28 376.675 1264.64 370.792ZM1269.09 303.735C1275.46 310.794 1283.1 316.088 1292.01 320.205C1300.93 324.323 1311.75 326.087 1323.85 326.087C1346.77 326.087 1365.23 318.441 1378.6 303.735C1390.06 290.206 1395.79 272.559 1395.79 250.795C1395.79 229.03 1390.06 211.972 1378.6 198.443C1365.87 183.149 1347.4 176.09 1323.85 176.09C1311.75 176.09 1301.56 177.855 1292.01 181.972C1283.1 186.09 1275.46 191.384 1269.09 198.443C1257 211.384 1251.27 228.442 1251.27 250.795C1251.27 273.147 1257 290.206 1269.09 303.735Z" fill="#fff"></path><path d="M1508.47 344.335C1486.18 321.394 1475.36 290.218 1475.36 251.396C1475.36 226.102 1480.45 203.75 1490 184.338C1499.55 164.927 1514.2 150.221 1533.3 139.633C1552.4 129.045 1574.68 123.751 1600.78 123.751C1638.98 123.751 1669.54 134.339 1691.83 154.927C1714.11 175.515 1724.93 204.338 1724.93 240.808V257.866C1724.93 261.984 1723.66 264.925 1721.11 267.278C1718.57 269.631 1715.38 270.807 1711.56 270.807H1542.85C1539.66 270.807 1537.75 272.572 1537.75 276.101C1538.39 294.336 1544.76 308.453 1556.85 319.041C1568.95 329.629 1584.23 334.923 1602.06 334.923C1626.89 334.923 1645.35 326.1 1656.17 308.453C1659.99 302.571 1664.45 300.218 1668.91 300.218H1708.38C1711.56 300.218 1714.11 301.394 1716.02 303.159C1717.93 304.924 1718.57 307.865 1717.29 311.394C1710.93 331.982 1697.56 349.04 1677.82 361.393C1658.08 374.334 1632.62 380.216 1602.69 380.216C1561.95 379.04 1530.75 367.864 1508.47 344.335ZM1542.85 226.69H1661.27C1664.45 226.69 1665.72 224.926 1665.72 221.985C1665.72 206.691 1659.99 193.75 1647.9 183.162C1636.44 172.574 1620.52 167.28 1600.78 167.28C1582.32 167.28 1567.68 172.574 1555.58 183.162C1544.12 193.75 1537.75 206.691 1537.12 221.985C1537.12 225.514 1539.03 226.69 1542.85 226.69Z" fill="#fff"></path><path id="logo-dot" d="M1099.97 44.8612C1098.62 43.5093 1097.87 41.7818 1097.64 39.6788C1097.49 37.5758 1098.09 35.8484 1099.59 34.3462L1131.97 1.97516C1133.47 0.473025 1135.2 -0.12783 1137.3 0.0223841C1139.4 0.172598 1141.13 0.998773 1142.48 2.3507L1174.1 33.9707C1175.68 35.5479 1176.51 37.3505 1176.58 39.3033C1176.66 41.2561 1175.91 42.9835 1174.48 44.4856L1142.11 76.8567C1140.6 78.3588 1138.88 79.0348 1136.92 78.9597C1134.97 78.8846 1133.17 78.0584 1131.59 76.4812L1099.97 44.8612Z" fill="#fff"></path></svg>