<svg width="93" height="92" viewBox="0 0 93 92" fill="none" xmlns="http://www.w3.org/2000/svg">
<path d="M75.39 84.97H7.13V17.68L19.03 5.71002H86.4V73L75.39 84.97Z" stroke="#711AFF" stroke-width="2" stroke-linejoin="round"/>
<g opacity="0.75">
<path d="M71.5 19.3H22.3C20.7 19.3 19.41 20.6 19.41 22.19V41C19.41 41.8 20.06 42.45 20.86 42.45C21.66 42.45 22.31 41.8 22.31 41V33.76H71.51V71.38H22.3V52.57C22.3 51.77 21.65 51.12 20.85 51.12C20.05 51.12 19.4 51.77 19.4 52.57V71.38C19.4 72.98 20.7 74.27 22.29 74.27H71.49C73.09 74.27 74.38 72.97 74.38 71.38V22.19C74.38 20.59 73.08 19.3 71.49 19.3H71.5ZM71.5 30.87H22.3V22.19H71.5V30.87Z" fill="#FFD02B"/>
<path d="M26.64 27.98C27.4408 27.98 28.09 27.3308 28.09 26.53C28.09 25.7292 27.4408 25.08 26.64 25.08C25.8392 25.08 25.19 25.7292 25.19 26.53C25.19 27.3308 25.8392 27.98 26.64 27.98Z" fill="#FFD02B"/>
<path d="M32.43 27.98C33.2308 27.98 33.88 27.3308 33.88 26.53C33.88 25.7292 33.2308 25.08 32.43 25.08C31.6292 25.08 30.98 25.7292 30.98 26.53C30.98 27.3308 31.6292 27.98 32.43 27.98Z" fill="#FFD02B"/>
<path d="M38.21 27.98C39.0108 27.98 39.66 27.3308 39.66 26.53C39.66 25.7292 39.0108 25.08 38.21 25.08C37.4092 25.08 36.76 25.7292 36.76 26.53C36.76 27.3308 37.4092 27.98 38.21 27.98Z" fill="#FFD02B"/>
<path d="M48.34 27.98H65.7C66.5 27.98 67.15 27.33 67.15 26.53C67.15 25.73 66.5 25.08 65.7 25.08H48.34C47.54 25.08 46.89 25.73 46.89 26.53C46.89 27.33 47.54 27.98 48.34 27.98Z" fill="#FFD02B"/>
<path d="M38.21 45.34H46.89C47.69 45.34 48.34 44.69 48.34 43.89V38.1C48.34 37.3 47.69 36.65 46.89 36.65H38.21C37.41 36.65 36.76 37.3 36.76 38.1V43.89C36.76 44.69 37.41 45.34 38.21 45.34ZM39.66 39.55H45.45V42.44H39.66V39.55Z" fill="#FFD02B"/>
<path d="M36.77 55.47C36.77 56.27 37.42 56.92 38.22 56.92H51.24C52.04 56.92 52.69 56.27 52.69 55.47V49.68C52.69 48.88 52.04 48.23 51.24 48.23H38.22C37.42 48.23 36.77 48.88 36.77 49.68V55.47ZM39.66 51.13H49.79V54.02H39.66V51.13Z" fill="#FFD02B"/>
<path d="M39.66 59.81C38.86 59.81 38.21 60.46 38.21 61.26V67.05C38.21 67.85 38.86 68.5 39.66 68.5H55.58C56.38 68.5 57.03 67.85 57.03 67.05V61.26C57.03 60.46 56.38 59.81 55.58 59.81H39.66ZM54.13 65.6H41.11V62.71H54.13V65.6Z" fill="#FFD02B"/>
<path d="M25.19 64.15C25.19 66.54 27.14 68.49 29.53 68.49C31.92 68.49 33.87 66.54 33.87 64.15C33.87 62.27 32.66 60.67 30.98 60.08V56.65C32.66 56.05 33.87 54.46 33.87 52.58C33.87 50.7 32.66 49.1 30.98 48.51V45.08C32.66 44.48 33.87 42.89 33.87 41.01C33.87 38.62 31.92 36.67 29.53 36.67C27.14 36.67 25.19 38.62 25.19 41.01C25.19 42.89 26.4 44.49 28.08 45.08V48.51C26.4 49.11 25.19 50.7 25.19 52.58C25.19 54.46 26.4 56.06 28.08 56.65V60.08C26.4 60.68 25.19 62.27 25.19 64.15ZM29.53 39.55C30.33 39.55 30.98 40.2 30.98 41C30.98 41.8 30.33 42.45 29.53 42.45C28.73 42.45 28.08 41.8 28.08 41C28.08 40.2 28.73 39.55 29.53 39.55ZM29.53 51.13C30.33 51.13 30.98 51.78 30.98 52.58C30.98 53.38 30.33 54.03 29.53 54.03C28.73 54.03 28.08 53.38 28.08 52.58C28.08 51.78 28.73 51.13 29.53 51.13ZM29.53 62.71C30.33 62.71 30.98 63.36 30.98 64.16C30.98 64.96 30.33 65.61 29.53 65.61C28.73 65.61 28.08 64.96 28.08 64.16C28.08 63.36 28.73 62.71 29.53 62.71Z" fill="#FFD02B"/>
<path d="M52.68 39.55H67.15C67.95 39.55 68.6 38.9 68.6 38.1C68.6 37.3 67.95 36.65 67.15 36.65H52.68C51.88 36.65 51.23 37.3 51.23 38.1C51.23 38.9 51.88 39.55 52.68 39.55Z" fill="#FFD02B"/>
<path d="M52.68 45.34H67.15C67.95 45.34 68.6 44.69 68.6 43.89C68.6 43.09 67.95 42.44 67.15 42.44H52.68C51.88 42.44 51.23 43.09 51.23 43.89C51.23 44.69 51.88 45.34 52.68 45.34Z" fill="#FFD02B"/>
<path d="M67.15 48.24H57.02C56.22 48.24 55.57 48.89 55.57 49.69C55.57 50.49 56.22 51.14 57.02 51.14H67.15C67.95 51.14 68.6 50.49 68.6 49.69C68.6 48.89 67.95 48.24 67.15 48.24Z" fill="#FFD02B"/>
<path d="M67.15 54.02H57.02C56.22 54.02 55.57 54.67 55.57 55.47C55.57 56.27 56.22 56.92 57.02 56.92H67.15C67.95 56.92 68.6 56.27 68.6 55.47C68.6 54.67 67.95 54.02 67.15 54.02Z" fill="#FFD02B"/>
<path d="M67.15 59.81H61.36C60.56 59.81 59.91 60.46 59.91 61.26C59.91 62.06 60.56 62.71 61.36 62.71H67.15C67.95 62.71 68.6 62.06 68.6 61.26C68.6 60.46 67.95 59.81 67.15 59.81Z" fill="#FFD02B"/>
<path d="M67.15 65.6H61.36C60.56 65.6 59.91 66.25 59.91 67.05C59.91 67.85 60.56 68.5 61.36 68.5H67.15C67.95 68.5 68.6 67.85 68.6 67.05C68.6 66.25 67.95 65.6 67.15 65.6Z" fill="#FFD02B"/>
<path d="M20.85 48.24C21.6508 48.24 22.3 47.5908 22.3 46.79C22.3 45.9892 21.6508 45.34 20.85 45.34C20.0492 45.34 19.4 45.9892 19.4 46.79C19.4 47.5908 20.0492 48.24 20.85 48.24Z" fill="#FFD02B"/>
</g>
</svg>
