<svg width="93" height="92" viewBox="0 0 93 92" fill="none" xmlns="http://www.w3.org/2000/svg">
<path d="M74.96 86.76H6.7V19.47L18.6 7.48999H85.97V74.78L74.96 86.76Z" stroke="#711AFF" stroke-width="2" stroke-linejoin="round"/>
<g opacity="0.75">
<path d="M67.05 19.9H32.65C29.49 19.9 26.92 22.47 26.92 25.63V55.73H19.75C18.96 55.73 18.32 56.37 18.32 57.16V68.63C18.32 71.79 20.89 74.36 24.05 74.36H67.05C70.21 74.36 72.78 71.79 72.78 68.63V52.86C72.78 52.07 72.14 51.43 71.35 51.43C70.56 51.43 69.92 52.07 69.92 52.86V68.63C69.92 70.21 68.63 71.5 67.05 71.5H29.01C29.51 70.64 29.78 69.66 29.78 68.63V25.63C29.78 24.05 31.07 22.76 32.65 22.76H67.05C68.63 22.76 69.92 24.05 69.92 25.63V41.4C69.92 42.19 70.56 42.83 71.35 42.83C72.14 42.83 72.78 42.19 72.78 41.4V25.63C72.78 22.47 70.21 19.9 67.05 19.9ZM26.91 68.64C26.91 69.4 26.57 70.12 26.05 70.65C25.52 71.18 24.81 71.51 24.04 71.51C22.46 71.51 21.17 70.22 21.17 68.64V58.61H26.9V68.64H26.91Z" fill="#FFD02B"/>
<path d="M67.05 27.07C67.05 26.28 66.41 25.64 65.62 25.64H54.15C53.36 25.64 52.72 26.28 52.72 27.07V32.8C52.72 33.59 53.36 34.23 54.15 34.23H65.62C66.41 34.23 67.05 33.59 67.05 32.8V27.07ZM64.18 31.37H55.58V28.5H64.18V31.37Z" fill="#FFD02B"/>
<path d="M65.61 37.1H57.01C56.22 37.1 55.58 37.74 55.58 38.53C55.58 39.32 56.22 39.96 57.01 39.96H65.61C66.4 39.96 67.04 39.32 67.04 38.53C67.04 37.74 66.4 37.1 65.61 37.1Z" fill="#FFD02B"/>
<path d="M65.61 42.8301H57.01C56.22 42.8301 55.58 43.4701 55.58 44.2601C55.58 45.0501 56.22 45.6901 57.01 45.6901H65.61C66.4 45.6901 67.04 45.0501 67.04 44.2601C67.04 43.4701 66.4 42.8301 65.61 42.8301Z" fill="#FFD02B"/>
<path d="M65.61 48.5701H57.01C56.22 48.5701 55.58 49.2101 55.58 50.0001C55.58 50.7901 56.22 51.4301 57.01 51.4301H65.61C66.4 51.4301 67.04 50.7901 67.04 50.0001C67.04 49.2101 66.4 48.5701 65.61 48.5701Z" fill="#FFD02B"/>
<path d="M45.55 54.3H34.08C33.29 54.3 32.65 54.94 32.65 55.73C32.65 56.52 33.29 57.16 34.08 57.16H45.55C46.34 57.16 46.98 56.52 46.98 55.73C46.98 54.94 46.34 54.3 45.55 54.3Z" fill="#FFD02B"/>
<path d="M45.55 60.03H34.08C33.29 60.03 32.65 60.67 32.65 61.46C32.65 62.25 33.29 62.89 34.08 62.89H45.55C46.34 62.89 46.98 62.25 46.98 61.46C46.98 60.67 46.34 60.03 45.55 60.03Z" fill="#FFD02B"/>
<path d="M45.55 65.77H34.08C33.29 65.77 32.65 66.41 32.65 67.2C32.65 67.99 33.29 68.63 34.08 68.63H45.55C46.34 68.63 46.98 67.99 46.98 67.2C46.98 66.41 46.34 65.77 45.55 65.77Z" fill="#FFD02B"/>
<path d="M65.61 54.3H54.14C53.35 54.3 52.71 54.94 52.71 55.73C52.71 56.52 53.35 57.16 54.14 57.16H65.61C66.4 57.16 67.04 56.52 67.04 55.73C67.04 54.94 66.4 54.3 65.61 54.3Z" fill="#FFD02B"/>
<path d="M65.61 60.03H54.14C53.35 60.03 52.71 60.67 52.71 61.46C52.71 62.25 53.35 62.89 54.14 62.89H65.61C66.4 62.89 67.04 62.25 67.04 61.46C67.04 60.67 66.4 60.03 65.61 60.03Z" fill="#FFD02B"/>
<path d="M65.61 65.77H54.14C53.35 65.77 52.71 66.41 52.71 67.2C52.71 67.99 53.35 68.63 54.14 68.63H65.61C66.4 68.63 67.04 67.99 67.04 67.2C67.04 66.41 66.4 65.77 65.61 65.77Z" fill="#FFD02B"/>
<path d="M52.71 50V47.13C52.71 43.26 50.51 39.91 47.29 38.23C48.84 36.91 49.84 34.98 49.84 32.79C49.84 28.84 46.62 25.62 42.67 25.62C38.72 25.62 35.5 28.84 35.5 32.79C35.5 34.97 36.5 36.91 38.05 38.23C34.84 39.9 32.63 43.26 32.63 47.13V50C32.63 50.79 33.27 51.43 34.06 51.43H51.26C52.05 51.43 52.69 50.79 52.69 50H52.71ZM42.68 28.5C45.05 28.5 46.98 30.43 46.98 32.8C46.98 35.17 45.05 37.1 42.68 37.1C40.31 37.1 38.38 35.17 38.38 32.8C38.38 30.43 40.31 28.5 42.68 28.5ZM49.85 48.57H35.52V47.14C35.52 43.68 37.99 40.78 41.25 40.12V41.41C41.25 42.2 41.89 42.84 42.68 42.84C43.47 42.84 44.11 42.2 44.11 41.41V40.12C47.38 40.79 49.84 43.68 49.84 47.14V48.57H49.85Z" fill="#FFD02B"/>
<path d="M49.85 57.16C50.6398 57.16 51.28 56.5198 51.28 55.73C51.28 54.9403 50.6398 54.3 49.85 54.3C49.0602 54.3 48.42 54.9403 48.42 55.73C48.42 56.5198 49.0602 57.16 49.85 57.16Z" fill="#FFD02B"/>
<path d="M49.85 62.9C50.6398 62.9 51.28 62.2598 51.28 61.47C51.28 60.6803 50.6398 60.04 49.85 60.04C49.0602 60.04 48.42 60.6803 48.42 61.47C48.42 62.2598 49.0602 62.9 49.85 62.9Z" fill="#FFD02B"/>
<path d="M49.85 68.63C50.6398 68.63 51.28 67.9898 51.28 67.2C51.28 66.4103 50.6398 65.77 49.85 65.77C49.0602 65.77 48.42 66.4103 48.42 67.2C48.42 67.9898 49.0602 68.63 49.85 68.63Z" fill="#FFD02B"/>
<path d="M71.35 48.5601C72.1398 48.5601 72.78 47.9198 72.78 47.1301C72.78 46.3403 72.1398 45.7001 71.35 45.7001C70.5602 45.7001 69.92 46.3403 69.92 47.1301C69.92 47.9198 70.5602 48.5601 71.35 48.5601Z" fill="#FFD02B"/>
</g>
</svg>
