<svg width="93" height="92" viewBox="0 0 93 92" fill="none" xmlns="http://www.w3.org/2000/svg">
<path d="M75.39 85.69H7.13V18.4L19.03 6.41998H86.4V73.71L75.39 85.69Z" stroke="#711AFF" stroke-width="2" stroke-linejoin="round"/>
<g opacity="0.75">
<path d="M28.99 45.01H39.95C40.82 45.01 41.52 44.31 41.52 43.44C41.52 42.57 40.82 41.87 39.95 41.87H30.56V38.74H61.87V41.87H52.48C51.61 41.87 50.91 42.57 50.91 43.44C50.91 44.31 51.61 45.01 52.48 45.01H63.44C64.31 45.01 65.01 44.31 65.01 43.44V37.18C65.01 36.32 64.31 35.61 63.44 35.61H57.18C57.18 31.23 54.58 27.44 50.86 25.69C51.86 24.58 52.49 23.13 52.49 21.52C52.49 18.07 49.68 15.26 46.23 15.26C42.78 15.26 39.97 18.07 39.97 21.52C39.97 23.13 40.6 24.58 41.6 25.69C37.87 27.44 35.28 31.22 35.28 35.61H29.02C28.15 35.61 27.45 36.31 27.45 37.18V43.44C27.45 44.3 28.15 45.01 29.02 45.01H28.99ZM43.08 21.53C43.08 19.8 44.48 18.4 46.21 18.4C47.94 18.4 49.34 19.8 49.34 21.53C49.34 23.26 47.94 24.66 46.21 24.66C44.48 24.66 43.08 23.26 43.08 21.53ZM46.21 27.79C50.53 27.79 54.04 31.3 54.04 35.62H38.38C38.38 31.3 41.89 27.79 46.21 27.79Z" fill="#FFD02B"/>
<path d="M68.07 58.58C69.07 57.47 69.7 56.01 69.7 54.4C69.7 50.94 66.9 48.14 63.44 48.14C59.98 48.14 57.18 50.94 57.18 54.4C57.18 56.01 57.81 57.47 58.81 58.58C57.24 59.3 55.9 60.4 54.83 61.73C54.56 61.39 54.28 61.06 53.97 60.76C53.06 59.84 52 59.1 50.85 58.57C51.85 57.46 52.48 56.02 52.48 54.41C52.48 50.95 49.68 48.15 46.22 48.15C42.76 48.15 39.96 50.95 39.96 54.41C39.96 56.01 40.59 57.46 41.57 58.57C40.02 59.29 38.67 60.39 37.61 61.75C36.56 60.4 35.2 59.31 33.63 58.59C34.63 57.48 35.26 56.02 35.26 54.41C35.26 50.95 32.46 48.15 29 48.15C25.54 48.15 22.74 50.95 22.74 54.41C22.74 56.02 23.37 57.48 24.37 58.59C20.64 60.33 18.05 64.12 18.05 68.5V73.2C18.05 74.06 18.75 74.77 19.62 74.77H72.85C73.71 74.77 74.42 74.07 74.42 73.2V68.5C74.42 64.12 71.82 60.33 68.1 58.59L68.07 58.58ZM28.99 51.27C30.71 51.27 32.12 52.68 32.12 54.4C32.12 56.12 30.71 57.53 28.99 57.53C27.27 57.53 25.86 56.12 25.86 54.4C25.86 52.68 27.27 51.27 28.99 51.27ZM36.82 71.62H21.16V68.49C21.16 64.72 23.85 61.55 27.42 60.82V62.23C27.42 63.09 28.12 63.8 28.99 63.8C29.86 63.8 30.56 63.1 30.56 62.23V60.82C34.13 61.56 36.82 64.72 36.82 68.49V71.62ZM46.21 51.27C47.93 51.27 49.34 52.68 49.34 54.4C49.34 56.12 47.93 57.53 46.21 57.53C44.49 57.53 43.08 56.12 43.08 54.4C43.08 52.68 44.49 51.27 46.21 51.27ZM52.47 68.49V71.62H39.95V68.49C39.95 67.21 39.72 65.99 39.31 64.84C40.41 62.76 42.36 61.3 44.65 60.83V62.22C44.65 63.08 45.35 63.79 46.22 63.79C47.09 63.79 47.79 63.09 47.79 62.22V60.81C49.29 61.11 50.65 61.84 51.77 62.95C52.32 63.5 52.76 64.14 53.12 64.84C52.73 65.97 52.49 67.19 52.49 68.47L52.47 68.49ZM63.43 51.27C65.15 51.27 66.56 52.68 66.56 54.4C66.56 56.12 65.15 57.53 63.43 57.53C61.71 57.53 60.3 56.12 60.3 54.4C60.3 52.68 61.71 51.27 63.43 51.27ZM71.26 71.62H55.6V68.49C55.6 64.72 58.29 61.55 61.86 60.82V62.23C61.86 63.09 62.56 63.8 63.43 63.8C64.3 63.8 65 63.1 65 62.23V60.82C68.57 61.56 71.26 64.72 71.26 68.49V71.62Z" fill="#FFD02B"/>
<path d="M46.21 45.01C47.0771 45.01 47.78 44.3071 47.78 43.44C47.78 42.5729 47.0771 41.87 46.21 41.87C45.3429 41.87 44.64 42.5729 44.64 43.44C44.64 44.3071 45.3429 45.01 46.21 45.01Z" fill="#FFD02B"/>
</g>
</svg>
