<svg width="93" height="92" viewBox="0 0 93 92" fill="none" xmlns="http://www.w3.org/2000/svg">
<path d="M75.52 85.44H7.26001V18.15L19.16 6.17999H86.53V73.47L75.52 85.44Z" stroke="#711AFF" stroke-width="2" stroke-linejoin="round"/>
<g opacity="0.75">
<path d="M61.45 48.52L56.9 43.97L61.45 39.42C64.76 39.9 68.05 38.83 70.46 36.44C74.6 32.28 74.6 25.52 70.46 21.37C66.3 17.22 59.54 17.22 55.39 21.37C53.04 23.72 51.95 27.08 52.41 30.38L47.86 34.93L43.31 30.38C43.77 27.09 42.68 23.73 40.33 21.37C36.18 17.22 29.42 17.22 25.27 21.37C21.12 25.52 21.12 32.28 25.27 36.43C27.62 38.78 30.99 39.87 34.28 39.41L38.83 43.96L34.28 48.51C30.99 48.05 27.63 49.13 25.27 51.49C21.12 55.64 21.12 62.41 25.27 66.56C27.34 68.63 30.06 69.67 32.79 69.67C35.52 69.67 38.26 68.63 40.34 66.56C42.72 64.16 43.79 60.87 43.31 57.56L47.86 53.01L52.41 57.56C51.95 60.85 53.04 64.21 55.39 66.57C57.4 68.58 60.08 69.69 62.92 69.69C65.76 69.69 68.44 68.58 70.45 66.57C74.6 62.42 74.6 55.66 70.45 51.51C68.1 49.15 64.74 48.06 61.44 48.53L61.45 48.52ZM56.23 32.59C56.77 32.05 56.98 31.27 56.78 30.54C56.2 28.33 56.82 25.97 58.4 24.39C60.36 22.43 63.28 22.04 65.66 23.16L61.42 27.4C60.59 28.23 60.59 29.58 61.42 30.41C62.22 31.21 63.6 31.24 64.43 30.41L68.67 26.17C69.79 28.54 69.4 31.46 67.45 33.43C65.83 35.04 63.53 35.65 61.29 35.06C60.56 34.87 59.78 35.08 59.24 35.61L53.89 40.96L50.87 37.94L56.22 32.59H56.23ZM39.5 55.36C38.96 55.9 38.75 56.68 38.95 57.41C39.54 59.65 38.93 61.95 37.34 63.56C35.37 65.52 32.45 65.91 30.07 64.79L34.31 60.55C35.14 59.72 35.14 58.37 34.31 57.54C33.48 56.71 32.13 56.71 31.3 57.54L27.06 61.78C25.94 59.41 26.33 56.48 28.29 54.52C29.87 52.94 32.23 52.31 34.44 52.9C35.17 53.09 35.95 52.88 36.49 52.35L41.84 47L44.86 50.02L39.51 55.37L39.5 55.36ZM58.41 63.55C56.8 61.94 56.19 59.64 56.79 57.4C56.98 56.67 56.77 55.89 56.24 55.35C56.24 55.35 36.53 35.64 36.49 35.6C35.97 35.08 35.16 34.86 34.44 35.05C32.2 35.64 29.9 35.04 28.29 33.43C26.33 31.47 25.94 28.55 27.06 26.18L31.3 30.42C32.1 31.22 33.48 31.25 34.31 30.42C35.14 29.59 35.14 28.24 34.31 27.41L30.07 23.17C32.44 22.04 35.36 22.44 37.32 24.4C38.93 26.01 39.54 28.31 38.94 30.55C38.75 31.28 38.96 32.06 39.49 32.6L59.24 52.35C59.77 52.88 60.55 53.1 61.29 52.9C63.53 52.31 65.83 52.91 67.44 54.52C69.4 56.48 69.79 59.4 68.67 61.77L64.43 57.53C63.6 56.7 62.25 56.7 61.42 57.53C60.59 58.36 60.59 59.71 61.42 60.54L65.64 64.76C63.27 65.83 60.29 65.44 58.4 63.55H58.41Z" fill="#FFD02B"/>
</g>
</svg>
